<?xml version="1.0" encoding="utf-8"?>
<!-- Generator: Adobe Illustrator 24.1.0, SVG Export Plug-In . SVG Version: 6.00 Build 0)  -->
<svg version="1.1" id="Layer_1" xmlns="http://www.w3.org/2000/svg" xmlns:xlink="http://www.w3.org/1999/xlink" x="0px" y="0px"
	 viewBox="0 0 960 320" style="enable-background:new 0 0 960 320;" xml:space="preserve">
<path d="M840.7,187.6v-55.1h-7.1v43.4l-35.8-43.4h-6.5v55.1h7.1v-43.1l35.5,43.1H840.7z M737.9,180.5c-11.7,0-20.4-8.7-20.4-20.5
	c0-11.7,8.7-20.5,20.4-20.5c11.8,0,20.4,8.7,20.4,20.5C758.3,171.7,749.7,180.5,737.9,180.5 M737.9,132.4
	c-15.7,0-27.5,11.8-27.5,27.6s11.8,27.6,27.5,27.6c15.8,0,27.5-11.8,27.5-27.6S753.6,132.4,737.9,132.4 M685.6,145.7
	c-2.4-8.2-9.4-13.3-17-13.3c-8.9,0-16.9,5.9-16.9,15.2c0,10.1,9,13.9,16.4,15.8c5.6,1.4,9.8,4.1,9.8,9.1c0,4.9-4.3,8-9.9,8
	c-4.8,0-9-3.2-10.6-9.4l-6.2,3.3c2.8,9.7,10.2,13.2,16.9,13.2c8.6,0,17-5.2,17-15.1c0-9.1-7.1-13.8-15.4-15.9
	c-6-1.5-10.8-3.7-10.8-8.9c0-3.9,3.3-8.1,9.8-8.1c4.3,0,8.7,3,10.3,9L685.6,145.7z M591.9,187.6h33.9v-7.1H599v-16.9h26.8v-7.1H599
	v-16.9h26.8v-7.1h-33.9V187.6z M531.6,187.6h33.9v-7.1h-26.8v-16.9h26.8v-7.1h-26.8v-16.9h26.8v-7.1h-33.9V187.6z M474,187.6h34.4
	v-7.1h-27.3v-48.1H474V187.6z M399.9,145.7c-2.4-8.2-9.4-13.3-17-13.3c-8.9,0-16.9,5.9-16.9,15.2c0,10.1,9,13.9,16.4,15.8
	c5.6,1.4,9.8,4.1,9.8,9.1c0,4.9-4.3,8-9.9,8c-4.8,0-9-3.2-10.6-9.4l-6.2,3.3c2.8,9.7,10.2,13.2,16.9,13.2c8.6,0,17-5.2,17-15.1
	c0-9.1-7.1-13.8-15.4-15.9c-6-1.5-10.8-3.7-10.8-8.9c0-3.9,3.3-8.1,9.8-8.1c4.3,0,8.7,3,10.3,9L399.9,145.7z M338.2,132.4h-7.1v55.1
	h7.1V132.4z M253.1,162.4c0,14.3,10.9,25.2,25.2,25.2c14.3,0,25.2-10.9,25.2-25.2v-29.9h-7.1v29.9c0,10.3-7.8,18.1-18.1,18.1
	c-10.2,0-18.1-7.8-18.1-18.1v-29.9h-7.1V162.4z M200.4,180.5c-11.7,0-20.4-8.7-20.4-20.5c0-11.7,8.7-20.5,20.4-20.5
	c11.8,0,20.4,8.7,20.4,20.5C220.8,171.7,212.2,180.5,200.4,180.5 M200.4,132.4c-15.7,0-27.5,11.8-27.5,27.6s11.8,27.6,27.5,27.6
	c15.8,0,27.5-11.8,27.5-27.6S216.2,132.4,200.4,132.4 M120,187.6h34.4v-7.1h-27.3v-48.1H120V187.6z"/>
</svg>
