<?xml version="1.0" encoding="utf-8"?>
<!-- Generator: Adobe Illustrator 18.0.0, SVG Export Plug-In . SVG Version: 6.00 Build 0)  -->
<!DOCTYPE svg PUBLIC "-//W3C//DTD SVG 1.1//EN" "http://www.w3.org/Graphics/SVG/1.1/DTD/svg11.dtd">
<svg version="1.1" id="Layer_1" xmlns="http://www.w3.org/2000/svg" xmlns:xlink="http://www.w3.org/1999/xlink" x="0px" y="0px"
	 width="960px" height="320px" viewBox="0 0 960 320" enable-background="new 0 0 960 320" xml:space="preserve">
<g>
	<path fill="#FFFFFF" d="M701.7,223h4.5l-11.9-15.6l11.9-12.1h-5l-13.6,13.8v-13.8H684V223h3.6v-8.8l4.2-4.2L701.7,223z
		 M656.4,208.4l1.6,2h-4.9v-11.5h7.1c3.2,0,5.8,2.4,5.8,5.8c0,2.5-1.6,4.6-3.7,5.4l-3.1-3.9L656.4,208.4z M653.1,214h7.7l7.4,9h4.6
		l-8.2-10c3-1.5,4.9-4.5,4.9-8.3c0-5.4-4-9.3-9.3-9.3h-10.6V223h3.6V214z M622.6,219.4c-5.9,0-10.2-4.4-10.2-10.3
		c0-5.9,4.4-10.3,10.2-10.3c5.9,0,10.2,4.4,10.2,10.3C632.9,215.1,628.6,219.4,622.6,219.4 M622.6,195.3c-7.9,0-13.8,5.9-13.8,13.8
		s5.9,13.8,13.8,13.8c7.9,0,13.8-5.9,13.8-13.8S630.6,195.3,622.6,195.3 M574.3,195.3l-9.6,21.6l-8.6-21.6h-3.8l11,27.7h2.6
		l10.1-22.7l10.1,22.7h2.6l11-27.7h-3.8l-8.6,21.6l-9.6-21.6H574.3z M543.8,195.3h-25.3v3.6h10.9V223h3.6v-24.1h10.9V195.3z
		 M495.3,208.4l1.6,2H492v-11.5h7.1c3.2,0,5.8,2.4,5.8,5.8c0,2.5-1.6,4.6-3.7,5.4l-3.1-3.9L495.3,208.4z M492,214h7.7l7.4,9h4.6
		l-8.2-10c3-1.5,4.9-4.5,4.9-8.3c0-5.4-4-9.3-9.3-9.3h-10.6V223h3.6V214z M462.2,199.6l6.9,14.9h-13.8L462.2,199.6z M477,223
		l-12.9-27.7h-3.7L447.5,223h3.9l2.2-4.9h17.2l2.2,4.9H477z M415.5,195.3h-25.3v3.6H401V223h3.6v-24.1h10.9V195.3z M378.8,223v-27.7
		h-3.6v21.8l-18-21.8H354V223h3.6v-21.6l17.8,21.6H378.8z M323.8,223h17v-3.6h-13.4v-8.5h13.4v-3.6h-13.4v-8.5h13.4v-3.6h-17V223z
		 M299.3,223l13.2-27.7h-4L298,217.6l-10.6-22.3h-4l13.2,27.7H299.3z M256.2,223h17v-3.6h-13.4v-8.5h13.4v-3.6h-13.4v-8.5h13.4v-3.6
		h-17V223z"/>
	<path fill="#FFFFFF" d="M823.5,153.8h34v-7.1h-26.9v-17h26.9v-7.1h-26.9v-17h26.9v-7.1h-34V153.8z M767.8,128.6v-23.1h12.6
		c6.4,0,11.5,4.8,11.5,11.5s-5.1,11.5-11.5,11.5H767.8z M780.3,135.8c10.8,0,18.7-7.9,18.7-18.7s-7.9-18.7-18.7-18.7h-19.7v55.4h7.1
		v-18H780.3z M706.9,146.7c-11.8,0-20.5-8.8-20.5-20.6c0-11.8,8.7-20.6,20.5-20.6c11.9,0,20.5,8.8,20.5,20.6
		C727.4,137.9,718.8,146.7,706.9,146.7 M706.9,98.4c-15.7,0-27.6,11.9-27.6,27.7c0,15.8,11.9,27.7,27.6,27.7
		c15.8,0,27.6-11.9,27.6-27.7C734.5,110.3,722.8,98.4,706.9,98.4 M658.4,106.3c-5.5-5-12.3-7.9-19.3-7.9
		c-15.7,0-27.7,11.9-27.7,27.7c0,15.7,11.9,27.7,27.7,27.7c3.4,0,7.2-0.9,11-2.3l-1.3-7.3c-3.5,1.6-6.9,2.5-9.7,2.5
		c-12.1,0-20.6-8.3-20.6-20.6c0-12.3,8.5-20.6,20.6-20.6c5.9,0,11.7,2.8,16.1,7.5L658.4,106.3z M586.5,111.8
		c-2.5-8.2-9.4-13.4-17.1-13.4c-8.9,0-17,5.9-17,15.3c0,10.1,9,13.9,16.5,15.8c5.6,1.4,9.8,4.1,9.8,9.1c0,4.9-4.3,8.1-10,8.1
		c-4.8,0-9-3.2-10.7-9.4l-6.2,3.3c2.8,9.7,10.3,13.2,16.9,13.2c8.6,0,17.1-5.2,17.1-15.2c0-9.1-7.1-13.8-15.4-16
		c-6-1.5-10.8-3.7-10.8-8.9c0-4,3.3-8.1,9.9-8.1c4.3,0,8.8,3,10.4,9L586.5,111.8z M499.2,146.7c-11.8,0-20.5-8.8-20.5-20.6
		c0-11.8,8.7-20.6,20.5-20.6c11.9,0,20.5,8.8,20.5,20.6C519.7,137.9,511.1,146.7,499.2,146.7 M499.2,98.4
		c-15.7,0-27.6,11.9-27.6,27.7c0,15.8,11.9,27.7,27.6,27.7c15.8,0,27.6-11.9,27.6-27.7C526.8,110.3,515.1,98.4,499.2,98.4
		 M420.3,105.5c11.9,0,20.5,8.5,20.5,20.6c0,12-8.6,20.6-20.5,20.6h-11.9v-41.1H420.3z M401.3,153.8h19c15.7,0,27.6-11.7,27.6-27.7
		c0-16-11.9-27.7-27.6-27.7h-19V153.8z M372.8,98.4h-7.1v55.4h7.1V98.4z M305.2,153.8h34v-7.1h-26.9v-17h26.9v-7.1h-26.9v-17h26.9
		v-7.1h-34V153.8z M247.3,153.8h34.6v-7.1h-27.4V98.4h-7.1V153.8z M194.9,107l13.8,29.9H181L194.9,107z M224.4,153.8l-25.8-55.4
		h-7.4l-25.8,55.4h7.8l4.4-9.7h34.5l4.4,9.7H224.4z M139.4,153.8h9l-23.9-31.2l23.9-24.1h-10L111,126V98.4h-7.1v55.4h7.1v-17.6
		l8.4-8.5L139.4,153.8z"/>
</g>
</svg>
