<?xml version="1.0" encoding="utf-8"?>
<!-- Generator: Adobe Illustrator 24.1.0, SVG Export Plug-In . SVG Version: 6.00 Build 0)  -->
<svg version="1.1" id="Layer_1" xmlns="http://www.w3.org/2000/svg" xmlns:xlink="http://www.w3.org/1999/xlink" x="0px" y="0px"
	 viewBox="0 0 960 320" style="enable-background:new 0 0 960 320;" xml:space="preserve">
<style type="text/css">
	.st0{fill:#1D1D1B;}
</style>
<g>
	<path class="st0" d="M683.1,234.8v-55.1H676v43.4l-35.8-43.4h-6.5v55.1h7.1v-43.1l35.5,43.1H683.1z M580.2,227.7
		c-11.7,0-20.4-8.7-20.4-20.5c0-11.7,8.7-20.5,20.4-20.5c11.8,0,20.4,8.7,20.4,20.5C600.6,219,592,227.7,580.2,227.7 M580.2,179.7
		c-15.7,0-27.5,11.8-27.5,27.6c0,15.8,11.8,27.6,27.5,27.6c15.8,0,27.5-11.8,27.5-27.6C607.7,191.5,595.9,179.7,580.2,179.7
		 M501.6,186.8c11.8,0,20.4,8.5,20.4,20.5c0,12-8.6,20.5-20.4,20.5h-11.8v-41H501.6z M482.7,234.8h18.9c15.6,0,27.5-11.7,27.5-27.6
		c0-15.9-11.9-27.6-27.5-27.6h-18.9V234.8z M454.3,234.8v-55.1h-7.1v43.4l-35.8-43.4h-6.5v55.1h7.1v-43.1l35.5,43.1H454.3z
		 M351.5,227.7c-11.7,0-20.4-8.7-20.4-20.5c0-11.7,8.7-20.5,20.4-20.5c11.8,0,20.4,8.7,20.4,20.5C371.9,219,363.3,227.7,351.5,227.7
		 M351.5,179.7c-15.7,0-27.5,11.8-27.5,27.6c0,15.8,11.8,27.6,27.5,27.6c15.8,0,27.5-11.8,27.5-27.6
		C378.9,191.5,367.2,179.7,351.5,179.7 M271,234.8h34.4v-7.1h-27.3v-48H271V234.8z"/>
	<path class="st0" d="M762.9,111.3l3.2,3.9h-9.8v-23h14.1c6.4,0,11.5,4.8,11.5,11.5c0,5-3.2,9.1-7.4,10.8l-6.1-7.8L762.9,111.3z
		 M756.3,122.3h15.4l14.7,18h9.2l-16.3-20c5.9-3,9.8-9.1,9.8-16.5c0-10.7-7.9-18.6-18.6-18.6h-21.2v55.1h7.1V122.3z M695.7,133.2
		c-11.7,0-20.4-8.7-20.4-20.5c0-11.7,8.7-20.5,20.4-20.5c11.8,0,20.4,8.7,20.4,20.5C716.1,124.5,707.6,133.2,695.7,133.2
		 M695.7,85.2c-15.7,0-27.5,11.8-27.5,27.6c0,15.8,11.8,27.6,27.5,27.6c15.8,0,27.5-11.8,27.5-27.6C723.2,97,711.5,85.2,695.7,85.2
		 M645.4,92.3v-7.1h-33.9v55.1h7.1v-24h26.8v-7.1h-26.8V92.3H645.4z M537.5,98.5c-2.4-8.2-9.4-13.3-17-13.3
		c-8.9,0-16.9,5.9-16.9,15.2c0,10.1,9,13.9,16.4,15.8c5.6,1.4,9.8,4.1,9.8,9.1c0,4.9-4.3,8-9.9,8c-4.8,0-9-3.2-10.6-9.4l-6.2,3.3
		c2.8,9.7,10.2,13.2,16.9,13.2c8.6,0,17-5.2,17-15.1c0-9.1-7.1-13.8-15.4-15.9c-6-1.5-10.8-3.7-10.8-8.9c0-3.9,3.3-8.1,9.8-8.1
		c4.3,0,8.7,3,10.3,9L537.5,98.5z M481.7,85.2h-50.5v7.1h21.7v48h7.1v-48h21.7V85.2z M408.7,140.3V85.2h-7.1v43.4l-35.8-43.4h-6.5
		v55.1h7.1V97.2l35.5,43.1H408.7z M299.1,140.3h33.9v-7.1h-26.8v-16.9h26.8v-7.1h-26.8V92.3h26.8v-7.1h-33.9V140.3z M250.4,140.3
		l26.2-55.1h-7.9l-21,44.4l-21.1-44.4h-7.9l26.2,55.1H250.4z M164.5,140.3h33.9v-7.1h-26.8v-16.9h26.8v-7.1h-26.8V92.3h26.8v-7.1
		h-33.9V140.3z"/>
</g>
</svg>
