<?xml version="1.0" encoding="utf-8"?>
<!-- Generator: Adobe Illustrator 18.0.0, SVG Export Plug-In . SVG Version: 6.00 Build 0)  -->
<!DOCTYPE svg PUBLIC "-//W3C//DTD SVG 1.1//EN" "http://www.w3.org/Graphics/SVG/1.1/DTD/svg11.dtd">
<svg version="1.1" id="Layer_1" xmlns="http://www.w3.org/2000/svg" xmlns:xlink="http://www.w3.org/1999/xlink" x="0px" y="0px"
	 width="960px" height="320px" viewBox="0 0 960 320" enable-background="new 0 0 960 320" xml:space="preserve">
<path fill="#FFFFFF" d="M708.1,246.4c-2.7-2.5-6.1-3.9-9.6-3.9c-7.8,0-13.8,5.9-13.8,13.8c0,7.8,5.9,13.8,13.8,13.8
	c1.7,0,4-0.5,5.8-1.3v-13.3h-9.9v3.5h6.3v7.1c-0.8,0.2-1.6,0.3-2.3,0.3c-6,0-10.2-4.1-10.2-10.2c0-6.1,4.2-10.2,10.2-10.2
	c2.9,0,5.8,1.4,8,3.7L708.1,246.4z M671.7,270v-27.6h-3.5v21.7l-17.9-21.7H647V270h3.5v-21.5l17.8,21.5H671.7z M632.9,242.4h-3.5
	V270h3.5V242.4z M602.6,246c5.9,0,10.2,4.3,10.2,10.2c0,6-4.3,10.2-10.2,10.2h-5.9V246H602.6z M593.1,270h9.5
	c7.8,0,13.7-5.8,13.7-13.8c0-8-5.9-13.8-13.7-13.8h-9.5V270z M578.9,270v-27.6h-3.5v21.7l-17.9-21.7h-3.3V270h3.5v-21.5l17.8,21.5
	H578.9z M528.1,246.7l6.9,14.9h-13.8L528.1,246.7z M542.8,270L530,242.4h-3.7L513.4,270h3.9l2.2-4.8h17.2l2.2,4.8H542.8z
	 M488.7,255.5l1.6,2h-4.9V246h7c3.2,0,5.8,2.4,5.8,5.8c0,2.5-1.6,4.6-3.7,5.4l-3.1-3.9L488.7,255.5z M485.4,261h7.7l7.3,9h4.6
	l-8.2-10c3-1.5,4.9-4.5,4.9-8.3c0-5.4-3.9-9.3-9.3-9.3h-10.6V270h3.5V261z M453.6,246h8c2.4,0,4.1,1.6,4.1,4.1
	c0,2.5-1.7,4.3-3.9,4.3h-8.2V246z M453.6,258h8.2c2.2,0,3.9,1.9,3.9,4.3c0,2.5-1.7,4.1-4.1,4.1h-8V258z M450,270h11.5
	c4.2,0,7.6-3.1,7.6-7.7c0-2.6-1.3-4.9-3.3-6.1c2-1.2,3.3-3.5,3.3-6.1c0-4.6-3.4-7.7-7.6-7.7H450V270z M415.4,242.4h-25.2v3.5H401v24
	h3.5v-24h10.9V242.4z M378.9,270v-27.6h-3.5v21.7l-17.9-21.7h-3.3V270h3.5v-21.5l17.8,21.5H378.9z M324.1,270H341v-3.5h-13.4V258
	H341v-3.5h-13.4V246H341v-3.5h-16.9V270z M299.7,270l13.1-27.6h-3.9l-10.5,22.2l-10.6-22.2H284l13.1,27.6H299.7z M256.8,270h16.9
	v-3.5h-13.4V258h13.4v-3.5h-13.4V246h13.4v-3.5h-16.9V270z"/>
<path fill="#FFFFFF" d="M779.5,201.1v-55.1h-7.1v43.4l-35.8-43.4h-6.5v55.1h7.1V158l35.5,43.1H779.5z M676.6,194
	c-11.7,0-20.4-8.7-20.4-20.5c0-11.7,8.7-20.5,20.4-20.5c11.8,0,20.4,8.7,20.4,20.5C697,185.2,688.4,194,676.6,194 M676.6,145.9
	c-15.7,0-27.5,11.8-27.5,27.6c0,15.8,11.8,27.6,27.5,27.6c15.8,0,27.5-11.8,27.5-27.6C704.1,157.8,692.3,145.9,676.6,145.9 M598,153
	c11.8,0,20.4,8.5,20.4,20.5c0,12-8.6,20.5-20.4,20.5h-11.8v-41H598z M579.1,201.1H598c15.6,0,27.5-11.7,27.5-27.6
	c0-15.9-11.9-27.6-27.5-27.6h-18.9V201.1z M550.7,201.1v-55.1h-7.1v43.4l-35.8-43.4h-6.5v55.1h7.1V158l35.5,43.1H550.7z M447.9,194
	c-11.7,0-20.4-8.7-20.4-20.5c0-11.7,8.7-20.5,20.4-20.5c11.8,0,20.4,8.7,20.4,20.5C468.3,185.2,459.7,194,447.9,194 M447.9,145.9
	c-15.7,0-27.5,11.8-27.5,27.6c0,15.8,11.8,27.6,27.5,27.6c15.8,0,27.5-11.8,27.5-27.6C475.3,157.8,463.6,145.9,447.9,145.9
	 M367.4,201.1h34.4V194h-27.3v-48h-7.1V201.1z M295.4,153v-7.1h-33.9v55.1h7.1v-24h26.8V170h-26.8V153H295.4z M208,194
	c-11.7,0-20.4-8.7-20.4-20.5c0-11.7,8.7-20.5,20.4-20.5c11.8,0,20.4,8.7,20.4,20.5C228.4,185.2,219.8,194,208,194 M208,145.9
	c-15.7,0-27.5,11.8-27.5,27.6c0,15.8,11.8,27.6,27.5,27.6c15.8,0,27.5-11.8,27.5-27.6C235.5,157.8,223.8,145.9,208,145.9"/>
<path fill="#FFFFFF" d="M629.5,77.6l3.2,3.9h-9.8v-23H637c6.4,0,11.5,4.8,11.5,11.5c0,5-3.2,9.1-7.4,10.8L635,73L629.5,77.6z
	 M622.9,88.6h15.4l14.7,18h9.2l-16.3-20c5.9-3,9.8-9.1,9.8-16.5c0-10.7-7.9-18.6-18.6-18.6h-21.2v55.1h7.1V88.6z M562.3,99.5
	c-11.7,0-20.4-8.7-20.4-20.5c0-11.7,8.7-20.5,20.4-20.5c11.8,0,20.4,8.7,20.4,20.5C582.7,90.7,574.2,99.5,562.3,99.5 M562.3,51.4
	c-15.7,0-27.5,11.8-27.5,27.6c0,15.8,11.8,27.6,27.5,27.6c15.8,0,27.5-11.8,27.5-27.6C589.8,63.2,578.1,51.4,562.3,51.4 M492.2,76
	l-17-24.6h-8.7l22.1,31.9v23.2h7.1V83.3l22.1-31.9h-8.7L492.2,76z M426.5,60l13.8,29.8h-27.6L426.5,60z M455.9,106.6l-25.7-55.1
	h-7.4l-25.7,55.1h7.8l4.4-9.7h34.3l4.4,9.7H455.9z M342.7,106.6l23.3-41v41h7.1V51.4h-7.3l-26.2,46l-26.2-46h-7.3v55.1h7.1v-41
	l23.3,41H342.7z"/>
</svg>
