<?xml version="1.0" encoding="utf-8"?>
<!-- Generator: Adobe Illustrator 24.1.0, SVG Export Plug-In . SVG Version: 6.00 Build 0)  -->
<svg version="1.1" id="Layer_1" xmlns="http://www.w3.org/2000/svg" xmlns:xlink="http://www.w3.org/1999/xlink" x="0px" y="0px"
	 viewBox="0 0 960 320" style="enable-background:new 0 0 960 320;" xml:space="preserve">
<style type="text/css">
	.st0{fill:#1D1D1B;}
</style>
<path class="st0" d="M693.5,234.8h33.9v-7.1h-26.8v-16.9h26.8v-7.1h-26.8v-16.9h26.8v-7.1h-33.9V234.8z M662.1,234.8h9l-23.8-31.1
	l23.8-24h-10l-27.2,27.5v-27.5h-7.1v55.2h7.1v-17.6l8.4-8.4L662.1,234.8z M574.5,188.3l13.8,29.8h-27.6L574.5,188.3z M603.9,234.8
	l-25.7-55.2h-7.4l-25.7,55.2h7.8l4.4-9.7h34.4l4.4,9.7H603.9z M490.7,234.8l23.3-41v41h7.1v-55.2h-7.3l-26.2,46l-26.2-46h-7.3v55.2
	h7.1v-41l23.3,41H490.7z M346.9,234.8h33.9v-7.1H354v-16.9h26.8v-7.1H354v-16.9h26.8v-7.1h-33.9V234.8z M273.2,179.7l-19.2,43
	l-17.1-43h-7.6l21.9,55.2h5.2l20.2-45.2l20.2,45.2h5.2l21.9-55.2h-7.6l-17.1,43l-19.2-43H273.2z"/>
<path class="st0" d="M771.5,109.7l-17-24.6h-8.7l22.1,31.9v23.2h7.1V117l22.1-31.9h-8.7L771.5,109.7z M699.8,111.3l3.2,3.9h-9.9v-23
	h14.1c6.4,0,11.5,4.8,11.5,11.5c0,5-3.2,9.1-7.4,10.8l-6.1-7.8L699.8,111.3z M693.1,122.3h15.4l14.7,18h9.2l-16.3-20
	c5.9-3,9.8-9.1,9.8-16.6c0-10.7-7.9-18.6-18.6-18.6h-21.2v55.2h7.1L693.1,122.3L693.1,122.3z M663.6,85.1h-50.5v7.1h21.7v48.1h7.1
	V92.2h21.8L663.6,85.1L663.6,85.1z M558.7,140.3h33.9v-7.1h-26.8v-17h26.8v-7.1h-26.8V92.2h26.8v-7.1h-33.9V140.3z M505.2,133.2
	c-11.7,0-20.4-8.7-20.4-20.5c0-11.7,8.7-20.5,20.4-20.5c11.8,0,20.4,8.7,20.4,20.5C525.6,124.4,517,133.2,505.2,133.2 M505.2,85.1
	c-15.7,0-27.5,11.8-27.5,27.6s11.8,27.6,27.5,27.6c15.8,0,27.5-11.8,27.5-27.6S520.9,85.1,505.2,85.1 M424.5,115.2v-23H437
	c6.4,0,11.5,4.8,11.5,11.5s-5.1,11.5-11.5,11.5H424.5z M437,122.3c10.7,0,18.6-7.9,18.6-18.6s-7.9-18.6-18.6-18.6h-19.6v55.2h7.1
	v-18H437z M310.2,140.3h33.9v-7.1h-26.8v-17h26.8v-7.1h-26.8V92.2h26.8v-7.1h-33.9V140.3z M281.7,140.3V85.1h-7.1v24h-31.4v-24h-7.1
	v55.2h7.1v-24h31.4v24H281.7z M213.6,85.1h-50.5v7.1h21.7v48.1h7.1V92.2h21.8v-7.1C213.7,85.1,213.6,85.1,213.6,85.1z"/>
</svg>
