<?xml version="1.0" encoding="utf-8"?>
<!-- Generator: Adobe Illustrator 18.0.0, SVG Export Plug-In . SVG Version: 6.00 Build 0)  -->
<!DOCTYPE svg PUBLIC "-//W3C//DTD SVG 1.1//EN" "http://www.w3.org/Graphics/SVG/1.1/DTD/svg11.dtd">
<svg version="1.1" id="Layer_1" xmlns="http://www.w3.org/2000/svg" xmlns:xlink="http://www.w3.org/1999/xlink" x="0px" y="0px" width="960px" height="320px"
	 viewBox="0 0 960 320" enable-background="new 0 0 960 320" xml:space="preserve">
<path fill="#FFFFFF" d="M701.4,269.3h4.5L694,253.7l11.9-12h-5l-13.6,13.8v-13.8h-3.5v27.6h3.5v-8.8l4.2-4.2L701.4,269.3z
	 M656.2,254.8l1.6,2h-4.9v-11.5h7.1c3.2,0,5.8,2.4,5.8,5.8c0,2.5-1.6,4.6-3.7,5.4l-3.1-3.9L656.2,254.8z M652.9,260.3h7.7l7.3,9h4.6
	l-8.2-10c3-1.5,4.9-4.5,4.9-8.3c0-5.4-3.9-9.3-9.3-9.3h-10.6v27.6h3.5L652.9,260.3L652.9,260.3z M622.6,265.8
	c-5.9,0-10.2-4.4-10.2-10.2c0-5.9,4.3-10.2,10.2-10.2c5.9,0,10.2,4.4,10.2,10.2C632.8,261.4,628.5,265.8,622.6,265.8 M622.6,241.7
	c-7.8,0-13.8,5.9-13.8,13.8s5.9,13.8,13.8,13.8c7.9,0,13.8-5.9,13.8-13.8C636.3,247.6,630.5,241.7,622.6,241.7 M574.4,241.7
	l-9.6,21.5l-8.6-21.5h-3.8l11,27.6h2.6l10.1-22.6l10.1,22.6h2.6l11-27.6H596l-8.6,21.5l-9.6-21.5
	C577.8,241.7,574.4,241.7,574.4,241.7z M544,241.7h-25.3v3.5h10.8v24h3.5v-24h10.9v-3.5H544z M495.7,254.8l1.6,2h-4.9v-11.5h7.1
	c3.2,0,5.8,2.4,5.8,5.8c0,2.5-1.6,4.6-3.7,5.4l-3.1-3.9L495.7,254.8z M492.4,260.3h7.7l7.3,9h4.6l-8.2-10c3-1.5,4.9-4.5,4.9-8.3
	c0-5.4-3.9-9.3-9.3-9.3h-10.6v27.6h3.5v-9H492.4z M462.8,246l6.9,14.9h-13.8L462.8,246z M477.5,269.3l-12.8-27.6H461l-12.9,27.6h3.9
	l2.2-4.8h17.2l2.2,4.8H477.5z M416.1,241.7h-25.3v3.5h10.8v24h3.5v-24h11V241.7z M379.7,269.3v-27.6h-3.6v21.7l-17.9-21.7h-3.3v27.6
	h3.5v-21.6l17.8,21.6H379.7z M324.8,269.3h16.9v-3.5h-13.4v-8.5h13.4v-3.5h-13.4v-8.5h13.4v-3.5h-16.9V269.3z M300.4,269.3
	l13.1-27.6h-3.9l-10.5,22.2l-10.6-22.2h-3.9l13.1,27.6H300.4z M257.4,269.3h16.9v-3.5h-13.4v-8.5h13.4v-3.5h-13.4v-8.5h13.4v-3.5
	h-16.9V269.3z"/>
<path fill="#FFFFFF" d="M693.5,200.3h33.9v-7.1h-26.8v-16.9h26.8v-7.1h-26.8v-16.9h26.8v-7.1h-33.9V200.3z M662.1,200.3h9
	l-23.8-31.1l23.8-24h-10l-27.2,27.5v-27.5h-7.1v55.2h7.1v-17.6l8.4-8.4L662.1,200.3z M574.5,153.8l13.8,29.8h-27.6L574.5,153.8z
	 M603.9,200.3l-25.7-55.2h-7.4l-25.7,55.2h7.8l4.4-9.7h34.4l4.4,9.7H603.9z M490.7,200.3l23.3-41v41h7.1v-55.2h-7.3l-26.2,46
	l-26.2-46h-7.3v55.2h7.1v-41l23.3,41H490.7z M346.9,200.3h33.9v-7.1H354v-16.9h26.8v-7.1H354v-16.9h26.8v-7.1h-33.9V200.3z
	 M273.2,145.2l-19.2,43l-17.1-43h-7.6l21.9,55.2h5.2l20.2-45.2l20.2,45.2h5.2l21.9-55.2h-7.6l-17.1,43l-19.2-43H273.2z"/>
<path fill="#FFFFFF" d="M771.5,75.2l-17-24.6h-8.7l22.1,31.9v23.2h7.1V82.5l22.1-31.9h-8.7L771.5,75.2z M699.8,76.8l3.2,3.9h-9.9
	v-23h14.1c6.4,0,11.5,4.8,11.5,11.5c0,5-3.2,9.1-7.4,10.8l-6.1-7.8L699.8,76.8z M693.1,87.8h15.4l14.7,18h9.2l-16.3-20
	c5.9-3,9.8-9.1,9.8-16.6c0-10.7-7.9-18.6-18.6-18.6h-21.2v55.2h7.1L693.1,87.8L693.1,87.8z M663.6,50.6h-50.5v7.1h21.7v48.1h7.1
	V57.7h21.8L663.6,50.6L663.6,50.6z M558.7,105.8h33.9v-7.1h-26.8v-17h26.8v-7.1h-26.8V57.7h26.8v-7.1h-33.9V105.8z M505.2,98.7
	c-11.7,0-20.4-8.7-20.4-20.5c0-11.7,8.7-20.5,20.4-20.5c11.8,0,20.4,8.7,20.4,20.5C525.6,89.9,517,98.7,505.2,98.7 M505.2,50.6
	c-15.7,0-27.5,11.8-27.5,27.6s11.8,27.6,27.5,27.6c15.8,0,27.5-11.8,27.5-27.6S520.9,50.6,505.2,50.6 M424.5,80.7v-23H437
	c6.4,0,11.5,4.8,11.5,11.5c0,6.7-5.1,11.5-11.5,11.5H424.5z M437,87.8c10.7,0,18.6-7.9,18.6-18.6s-7.9-18.6-18.6-18.6h-19.6v55.2
	h7.1v-18H437z M310.2,105.8h33.9v-7.1h-26.8v-17h26.8v-7.1h-26.8V57.7h26.8v-7.1h-33.9V105.8z M281.7,105.8V50.6h-7.1v24h-31.4v-24
	h-7.1v55.2h7.1v-24h31.4v24H281.7z M213.6,50.6h-50.5v7.1h21.7v48.1h7.1V57.7h21.8v-7.1H213.6z"/>
</svg>
