<?xml version="1.0" encoding="utf-8"?>
<!-- Generator: Adobe Illustrator 18.0.0, SVG Export Plug-In . SVG Version: 6.00 Build 0)  -->
<!DOCTYPE svg PUBLIC "-//W3C//DTD SVG 1.1//EN" "http://www.w3.org/Graphics/SVG/1.1/DTD/svg11.dtd">
<svg version="1.1" id="Layer_1" xmlns="http://www.w3.org/2000/svg" xmlns:xlink="http://www.w3.org/1999/xlink" x="0px" y="0px"
	 width="960px" height="320px" viewBox="0 0 960 320" enable-background="new 0 0 960 320" xml:space="preserve">
<path fill="#FFFFFF" d="M624,270v-27.6h-3.5v21.7l-17.9-21.7h-3.3V270h3.5v-21.5l17.8,21.5H624z M572.5,266.5
	c-5.9,0-10.2-4.4-10.2-10.2c0-5.9,4.3-10.2,10.2-10.2c5.9,0,10.2,4.4,10.2,10.2C582.7,262.1,578.4,266.5,572.5,266.5 M572.5,242.4
	c-7.8,0-13.7,5.9-13.7,13.8s5.9,13.8,13.7,13.8c7.9,0,13.7-5.9,13.7-13.8S580.4,242.4,572.5,242.4 M545.8,242.4h-3.5V270h3.5V242.4z
	 M531,242.4h-25.2v3.5h10.8v24h3.5v-24H531V242.4z M485,246.7l6.9,14.9h-13.8L485,246.7z M499.7,270l-12.8-27.6h-3.7L470.3,270h3.9
	l2.2-4.8h17.2l2.2,4.8H499.7z M443.1,270l11.7-20.5V270h3.5v-27.6h-3.7l-13.1,23l-13.1-23h-3.7V270h3.5v-20.5L440,270H443.1z
	 M410.6,242.4H407V270h3.5V242.4z M392.9,270v-27.6h-3.5v21.7l-17.9-21.7h-3.3V270h3.5v-21.5l17.8,21.5H392.9z M342,246.7l6.9,14.9
	h-13.8L342,246.7z M356.7,270l-12.8-27.6h-3.7L327.4,270h3.9l2.2-4.8h17.2l2.2,4.8H356.7z"/>
<path fill="#FFFFFF" d="M861.9,201.1h9L847.1,170l23.8-24h-10l-27.2,27.5v-27.5h-7.1v55.1h7.1v-17.6l8.3-8.4L861.9,201.1z
	 M766.4,201.1h33.9V194h-26.8v-16.9h26.8V170h-26.8V153h26.8v-7.1h-33.9V201.1z M706.1,201.1H740V194h-26.8v-16.9H740V170h-26.8V153
	H740v-7.1h-33.9V201.1z M632.6,145.9l-19.1,43l-17.1-43h-7.6l21.9,55.1h5.2l20.2-45.2l20.2,45.2h5.2l21.9-55.1h-7.6l-17.1,43
	l-19.1-43H632.6z M519.1,201.1v-55.1H512v43.4l-35.8-43.4h-6.5v55.1h7.1V158l35.5,43.1H519.1z M416.2,194
	c-11.7,0-20.4-8.7-20.4-20.5c0-11.7,8.7-20.5,20.4-20.5c11.8,0,20.4,8.7,20.4,20.5C436.6,185.2,428,194,416.2,194 M416.2,145.9
	c-15.7,0-27.5,11.8-27.5,27.6s11.8,27.6,27.5,27.6c15.8,0,27.5-11.8,27.5-27.6S431.9,145.9,416.2,145.9 M362.7,145.9h-7.1v55.1h7.1
	V145.9z M327.3,201.1v-55.1h-7.1v24h-31.4v-24h-7.1v55.1h7.1v-24h31.4v24H327.3z M254.5,159.3c-2.4-8.2-9.4-13.3-17-13.3
	c-8.9,0-16.9,5.9-16.9,15.2c0,10.1,9,13.9,16.4,15.8c5.6,1.4,9.8,4.1,9.8,9.1c0,4.9-4.3,8-9.9,8c-4.8,0-9-3.2-10.6-9.4l-6.2,3.3
	c2.8,9.7,10.2,13.2,16.9,13.2c8.6,0,17-5.2,17-15.1c0-9.1-7.1-13.8-15.4-15.9c-6-1.5-10.8-3.7-10.8-8.9c0-3.9,3.3-8.1,9.8-8.1
	c4.3,0,8.7,3,10.3,9L254.5,159.3z M168.9,154.5l13.8,29.8h-27.6L168.9,154.5z M198.2,201.1l-25.7-55.1h-7.4l-25.7,55.1h7.8l4.4-9.7
	H186l4.4,9.7H198.2z M122.9,153v-7.1H89.1v55.1h7.1v-24h26.8V170H96.2V153H122.9z"/>
<path fill="#FFFFFF" d="M683.1,106.6V51.4H676v43.4l-35.8-43.4h-6.5v55.1h7.1V63.5l35.5,43.1H683.1z M580.2,99.5
	c-11.7,0-20.4-8.7-20.4-20.5c0-11.7,8.7-20.5,20.4-20.5c11.8,0,20.4,8.7,20.4,20.5C600.6,90.7,592,99.5,580.2,99.5 M580.2,51.4
	c-15.7,0-27.5,11.8-27.5,27.6c0,15.8,11.8,27.6,27.5,27.6c15.8,0,27.5-11.8,27.5-27.6C607.7,63.2,595.9,51.4,580.2,51.4 M501.6,58.5
	C513.4,58.5,522,67,522,79c0,12-8.6,20.5-20.4,20.5h-11.8v-41H501.6z M482.7,106.6h18.9c15.6,0,27.5-11.7,27.5-27.6
	c0-15.9-11.9-27.6-27.5-27.6h-18.9V106.6z M454.3,106.6V51.4h-7.1v43.4l-35.8-43.4h-6.5v55.1h7.1V63.5l35.5,43.1H454.3z M351.4,99.5
	c-11.7,0-20.4-8.7-20.4-20.5c0-11.7,8.7-20.5,20.4-20.5c11.8,0,20.4,8.7,20.4,20.5C371.8,90.7,363.3,99.5,351.4,99.5 M351.4,51.4
	c-15.7,0-27.5,11.8-27.5,27.6c0,15.8,11.8,27.6,27.5,27.6c15.8,0,27.5-11.8,27.5-27.6C378.9,63.2,367.2,51.4,351.4,51.4 M271,106.6
	h34.4v-7.1h-27.3v-48H271V106.6z"/>
</svg>
