<?xml version="1.0" encoding="utf-8"?>
<!-- Generator: Adobe Illustrator 24.1.0, SVG Export Plug-In . SVG Version: 6.00 Build 0)  -->
<svg version="1.1" id="Layer_1" xmlns="http://www.w3.org/2000/svg" xmlns:xlink="http://www.w3.org/1999/xlink" x="0px" y="0px"
	 viewBox="0 0 960 320" style="enable-background:new 0 0 960 320;" xml:space="preserve">
<style type="text/css">
	.st0{fill:#1D1D1B;}
</style>
<g>
	<path class="st0" d="M688.8,234.8v-55.1h-7.1v43.4l-35.8-43.4h-6.5v55.1h7.1v-43.1l35.5,43.1H688.8z M585.9,227.7
		c-11.7,0-20.4-8.7-20.4-20.5c0-11.7,8.7-20.5,20.4-20.5c11.8,0,20.4,8.7,20.4,20.5C606.3,219,597.7,227.7,585.9,227.7 M585.9,179.7
		c-15.7,0-27.5,11.8-27.5,27.6c0,15.8,11.8,27.6,27.5,27.6c15.8,0,27.5-11.8,27.5-27.6C613.4,191.5,601.7,179.7,585.9,179.7
		 M507.3,186.8c11.8,0,20.4,8.5,20.4,20.5c0,12-8.6,20.5-20.4,20.5h-11.8v-41H507.3z M488.4,234.8h18.9c15.6,0,27.5-11.7,27.5-27.6
		c0-15.9-11.9-27.6-27.5-27.6h-18.9V234.8z M460,234.8v-55.1h-7.1v43.4l-35.8-43.4h-6.5v55.1h7.1v-43.1l35.5,43.1H460z M357.2,227.7
		c-11.7,0-20.4-8.7-20.4-20.5c0-11.7,8.7-20.5,20.4-20.5c11.8,0,20.4,8.7,20.4,20.5C377.6,219,369,227.7,357.2,227.7 M357.2,179.7
		c-15.7,0-27.5,11.8-27.5,27.6c0,15.8,11.8,27.6,27.5,27.6c15.8,0,27.5-11.8,27.5-27.6C384.7,191.5,372.9,179.7,357.2,179.7
		 M276.7,234.8h34.4v-7.1h-27.3v-48h-7.1V234.8z"/>
	<path class="st0" d="M740.2,140.3V85.2h-7.1v43.4l-35.8-43.4h-6.5v55.1h7.1V97.2l35.5,43.1H740.2z M662.4,85.2h-7.1v55.1h7.1V85.2z
		 M556.2,93.8l13.8,29.8h-27.6L556.2,93.8z M585.6,140.3L560,85.2h-7.4l-25.7,55.1h7.8l4.4-9.7h34.3l4.4,9.7H585.6z M509.1,93
		c-5.4-5-12.2-7.9-19.2-7.9c-15.7,0-27.6,11.9-27.6,27.6c0,15.7,11.9,27.6,27.6,27.6c3.4,0,7.2-0.9,10.9-2.3l-1.3-7.2
		c-3.5,1.6-6.9,2.4-9.7,2.4c-12.1,0-20.5-8.3-20.5-20.5c0-12.2,8.4-20.5,20.5-20.5c5.8,0,11.7,2.8,16,7.5L509.1,93z M436.4,85.2
		h-7.1v55.1h7.1V85.2z M374.2,111.3l3.2,3.9h-9.8v-23h14.1c6.4,0,11.5,4.8,11.5,11.5c0,5-3.2,9.1-7.4,10.8l-6.1-7.8L374.2,111.3z
		 M367.6,122.3H383l14.7,18h9.2l-16.3-20c5.9-3,9.8-9.1,9.8-16.5c0-10.7-7.9-18.6-18.6-18.6h-21.2v55.1h7.1V122.3z M335.3,92.3v-7.1
		h-33.9v55.1h7.1v-24h26.8v-7.1h-26.8V92.3H335.3z M249.2,93.8l13.8,29.8h-27.6L249.2,93.8z M278.6,140.3l-25.7-55.1h-7.4
		l-25.7,55.1h7.8l4.4-9.7h34.3l4.4,9.7H278.6z"/>
</g>
</svg>
