<?xml version="1.0" encoding="utf-8"?>
<!-- Generator: Adobe Illustrator 24.1.0, SVG Export Plug-In . SVG Version: 6.00 Build 0)  -->
<svg version="1.1" id="Layer_1" xmlns="http://www.w3.org/2000/svg" xmlns:xlink="http://www.w3.org/1999/xlink" x="0px" y="0px"
	 viewBox="0 0 30 30" style="enable-background:new 0 0 30 30;" xml:space="preserve">
<style type="text/css">
	.st0{fill:none;}
</style>
<rect class="st0" width="30" height="30"/>
<path d="M20.4,14.5c1.8-1.5,2.9-3.8,2.9-6.3C23.2,3.7,19.6,0,15,0c-4.6,0-8.2,3.7-8.2,8.2c0,2.5,1.1,4.7,2.9,6.3
	C4,16.7,0,22.1,0,28.5h30C30,22.1,26,16.7,20.4,14.5z M9.8,8.2C9.8,5.4,12.1,3,15,3c2.9,0,5.2,2.4,5.2,5.2s-2.4,5.2-5.2,5.2
	C12.1,13.5,9.8,11.1,9.8,8.2z M15,16.5c5.6,0,10.3,3.8,11.6,9H3.4C4.7,20.3,9.4,16.5,15,16.5z"/>
</svg>
