<?xml version="1.0" encoding="utf-8"?>
<!-- Generator: Adobe Illustrator 18.0.0, SVG Export Plug-In . SVG Version: 6.00 Build 0)  -->
<!DOCTYPE svg PUBLIC "-//W3C//DTD SVG 1.1//EN" "http://www.w3.org/Graphics/SVG/1.1/DTD/svg11.dtd">
<svg version="1.1" id="Layer_1" xmlns="http://www.w3.org/2000/svg" xmlns:xlink="http://www.w3.org/1999/xlink" x="0px" y="0px"
	 viewBox="0 0 155.9 155.9" enable-background="new 0 0 155.9 155.9" xml:space="preserve">
<rect x="0" y="0.1" opacity="0" fill="#FFFFFF" fill-opacity="0" width="155.9" height="155.9"/>
<path fill="#010101" d="M94.6,76.8c7.5-5.2,12.7-14,12.7-24.2C107.1,36.5,94.1,23.5,78,23.5s-29.1,13-29.1,29.1
	c0,9.9,4.9,18.7,12.7,24.2c-22.3,7-38.2,27.5-38.2,52v3.9h109.1v-3.9C132.5,104.3,116.7,83.8,94.6,76.8z"/>
<path fill="#FFFFFF" d="M56.6,52.6c0-11.7,9.6-21.3,21.3-21.3s21.3,9.6,21.3,21.3s-9.6,21.3-21.3,21.3
	C66.3,74.2,56.6,64.5,56.6,52.6z"/>
<path fill="#FFFFFF" d="M31.4,124.8C33.5,100.9,53.5,82,78,82s44.7,19,46.5,42.9L31.4,124.8L31.4,124.8z"/>
</svg>
