<?xml version="1.0" encoding="utf-8"?>
<!-- Generator: Adobe Illustrator 18.0.0, SVG Export Plug-In . SVG Version: 6.00 Build 0)  -->
<!DOCTYPE svg PUBLIC "-//W3C//DTD SVG 1.1//EN" "http://www.w3.org/Graphics/SVG/1.1/DTD/svg11.dtd">
<svg version="1.1" id="Layer_1" xmlns="http://www.w3.org/2000/svg" xmlns:xlink="http://www.w3.org/1999/xlink" x="0px" y="0px"
	 viewBox="0 0 155.9 155.9" enable-background="new 0 0 155.9 155.9" xml:space="preserve">
<rect x="0" opacity="0" fill="#FFFFFF" fill-opacity="0" width="155.9" height="155.9"/>
<rect x="23.4" y="62.4" fill="#010101" width="31.2" height="31.2"/>
<rect x="31.2" y="70.2" fill="#FFFFFF" width="15.6" height="15.6"/>
<rect x="101.3" y="62.4" fill="#010101" width="31.2" height="31.2"/>
<rect x="109.1" y="70.2" fill="#FFFFFF" width="15.6" height="15.6"/>
<rect x="62.4" y="62.4" fill="#010101" width="31.2" height="31.2"/>
<rect x="70.2" y="70.2" fill="#FFFFFF" width="15.6" height="15.6"/>
<rect x="23.4" y="23.4" fill="#010101" width="31.2" height="31.2"/>
<rect x="31.2" y="31.2" fill="#FFFFFF" width="15.6" height="15.6"/>
<rect x="101.3" y="23.4" fill="#010101" width="31.2" height="31.2"/>
<rect x="109.1" y="31.2" fill="#FFFFFF" width="15.6" height="15.6"/>
<rect x="62.4" y="23.4" fill="#010101" width="31.2" height="31.2"/>
<rect x="70.2" y="31.2" fill="#FFFFFF" width="15.6" height="15.6"/>
<rect x="23.4" y="101.3" fill="#010101" width="31.2" height="31.2"/>
<rect x="31.2" y="109.1" fill="#FFFFFF" width="15.6" height="15.6"/>
<rect x="101.3" y="101.3" fill="#010101" width="31.2" height="31.2"/>
<rect x="109.1" y="109.1" fill="#FFFFFF" width="15.6" height="15.6"/>
<rect x="62.4" y="101.3" fill="#010101" width="31.2" height="31.2"/>
<rect x="70.2" y="109.1" fill="#FFFFFF" width="15.6" height="15.6"/>
</svg>
