<?xml version="1.0" encoding="utf-8"?>
<!-- Generator: Adobe Illustrator 24.1.0, SVG Export Plug-In . SVG Version: 6.00 Build 0)  -->
<svg version="1.1" id="Layer_1" xmlns="http://www.w3.org/2000/svg" xmlns:xlink="http://www.w3.org/1999/xlink" x="0px" y="0px"
	 viewBox="0 0 960 320" style="enable-background:new 0 0 960 320;" xml:space="preserve">
<style type="text/css">
	.st0{fill:#1D1D1B;}
</style>
<g>
	<path class="st0" d="M697.6,205.8l3.2,3.9H691v-23h14.1c6.4,0,11.5,4.8,11.5,11.5c0,5-3.2,9.1-7.4,10.8l-6.1-7.8L697.6,205.8z
		 M691,216.9h15.4l14.7,18h9.2l-16.3-20c5.9-3,9.8-9.1,9.8-16.5c0-10.7-7.9-18.6-18.6-18.6h-21.2v55.1h7.1V216.9z M623.7,234.8h33.9
		v-7.1h-26.8v-16.9h26.8v-7.1h-26.8v-16.9h26.8v-7.1h-33.9V234.8z M595.3,234.8v-55.1h-7.1v24h-31.4v-24h-7.1v55.1h7.1v-24h31.4v24
		H595.3z M527.3,179.7h-50.5v7.1h21.7v48h7.1v-48h21.7V179.7z M435.2,188.3l13.8,29.8h-27.6L435.2,188.3z M464.6,234.8l-25.7-55.1
		h-7.4l-25.7,55.1h7.8l4.4-9.7h34.3l4.4,9.7H464.6z M351.1,234.8h33.9v-7.1h-26.8v-16.9h26.8v-7.1h-26.8v-16.9h26.8v-7.1h-33.9
		V234.8z M277.6,179.7l-19.1,43l-17.1-43h-7.6l21.9,55.1h5.2l20.2-45.2l20.2,45.2h5.2l21.9-55.1h-7.6l-17.1,43l-19.1-43H277.6z"/>
	<path class="st0" d="M853.7,140.3h33.9v-7.1h-26.8v-16.9h26.8v-7.1h-26.8V92.3h26.8v-7.1h-33.9V140.3z M825.3,140.3V85.2h-7.1v24
		h-31.4v-24h-7.1v55.1h7.1v-24h31.4v24H825.3z M757.3,85.2h-50.5v7.1h21.7v48h7.1v-48h21.7V85.2z M610.8,111.3l3.2,3.9h-9.8v-23
		h14.1c6.4,0,11.5,4.8,11.5,11.5c0,5-3.2,9.1-7.4,10.8l-6.1-7.8L610.8,111.3z M604.1,122.3h15.4l14.7,18h9.2l-16.3-20
		c5.9-3,9.8-9.1,9.8-16.5c0-10.7-7.9-18.6-18.6-18.6H597v55.1h7.1V122.3z M536.8,140.3h33.9v-7.1h-26.8v-16.9h26.8v-7.1h-26.8V92.3
		h26.8v-7.1h-33.9V140.3z M488.1,140.3l26.2-55.1h-7.9l-21,44.4l-21.1-44.4h-7.9l26.2,55.1H488.1z M402.2,140.3H436v-7.1h-26.8
		v-16.9H436v-7.1h-26.8V92.3H436v-7.1h-33.9V140.3z M379.7,85.2h-50.5v7.1h21.7v48h7.1v-48h21.7V85.2z M287.6,93.8l13.8,29.8h-27.6
		L287.6,93.8z M317,140.3l-25.7-55.1h-7.4l-25.7,55.1h7.8l4.4-9.7h34.3l4.4,9.7H317z M235.4,140.3V85.2h-7.1v24h-31.4v-24h-7.1v55.1
		h7.1v-24h31.4v24H235.4z M116.3,85.2l-19.1,43l-17.1-43h-7.6l21.9,55.1h5.2l20.2-45.2l20.2,45.2h5.2L167,85.2h-7.6l-17.1,43
		l-19.1-43H116.3z"/>
</g>
</svg>
