<?xml version="1.0" encoding="utf-8"?>
<!-- Generator: Adobe Illustrator 24.1.0, SVG Export Plug-In . SVG Version: 6.00 Build 0)  -->
<svg version="1.1" id="Layer_1" xmlns="http://www.w3.org/2000/svg" xmlns:xlink="http://www.w3.org/1999/xlink" x="0px" y="0px"
	 viewBox="0 0 960 320" style="enable-background:new 0 0 960 320;" xml:space="preserve">
<g>
	<path d="M875.8,139.5h16c4.7,0,8.2,3.2,8.2,8.3c0,5-3.3,8.7-7.8,8.7h-16.4V139.5z M875.8,163.5h16.4c4.5,0,7.8,3.7,7.8,8.7
		c0,5-3.5,8.3-8.2,8.3h-16V163.5z M868.7,187.6h23.1c8.4,0,15.3-6.1,15.3-15.4c0-5.3-2.6-9.8-6.7-12.2c4.1-2.4,6.7-7,6.7-12.2
		c0-9.2-6.9-15.4-15.3-15.4h-23.1V187.6z M790.7,162.4c0,14.3,10.9,25.2,25.2,25.2c14.3,0,25.2-10.9,25.2-25.2v-29.9H834v29.9
		c0,10.3-7.8,18.1-18.1,18.1c-10.2,0-18.1-7.8-18.1-18.1v-29.9h-7.1V162.4z M763.1,187.6v-55.1H756v24h-31.4v-24h-7.1v55.1h7.1v-24
		H756v24H763.1z M643.5,145.7c-2.4-8.2-9.4-13.3-17-13.3c-8.9,0-16.9,5.9-16.9,15.2c0,10.1,9,13.9,16.4,15.8
		c5.6,1.4,9.8,4.1,9.8,9.1c0,4.9-4.3,8-9.9,8c-4.8,0-9-3.2-10.6-9.4l-6.2,3.3c2.8,9.7,10.2,13.2,16.9,13.2c8.6,0,17-5.2,17-15.1
		c0-9.1-7.1-13.8-15.4-15.9c-6-1.5-10.8-3.7-10.8-8.9c0-3.9,3.3-8.1,9.8-8.1c4.3,0,8.7,3,10.3,9L643.5,145.7z M581.7,187.6v-55.1
		h-7.1v43.4l-35.8-43.4h-6.5v55.1h7.1v-43.1l35.5,43.1H581.7z M509.1,140.3c-5.4-5-12.2-7.9-19.2-7.9c-15.7,0-27.6,11.9-27.6,27.6
		c0,15.7,11.9,27.6,27.6,27.6c3.4,0,8-1,11.7-2.5v-26.5h-19.8v7.1h12.7v14.3c-1.7,0.4-3.2,0.6-4.6,0.6c-12.1,0-20.5-8.3-20.5-20.5
		c0-12.2,8.4-20.5,20.5-20.5c5.8,0,11.7,2.8,16,7.5L509.1,140.3z M436.3,132.4h-7.1v55.1h7.1V132.4z M377,141l13.8,29.8h-27.6
		L377,141z M406.4,187.6l-25.7-55.1h-7.4l-25.7,55.1h7.8l4.4-9.7h34.3l4.4,9.7H406.4z M301.5,162.5v-23h12.5
		c6.4,0,11.5,4.8,11.5,11.5s-5.1,11.5-11.5,11.5H301.5z M314.1,169.6c10.7,0,18.6-7.9,18.6-18.6s-7.9-18.6-18.6-18.6h-19.6v55.1h7.1
		v-18H314.1z M235.7,187.6l23.3-41v41h7.1v-55.1h-7.3l-26.2,46l-26.2-46h-7.3v55.1h7.1v-41l23.3,41H235.7z M146.8,141l13.8,29.8
		h-27.6L146.8,141z M176.2,187.6l-25.7-55.1h-7.4l-25.7,55.1h7.8l4.4-9.7H164l4.4,9.7H176.2z M99.7,140.3c-5.4-5-12.2-7.9-19.2-7.9
		C64.8,132.4,53,144.3,53,160c0,15.7,11.9,27.6,27.6,27.6c3.4,0,7.2-0.9,10.9-2.3l-1.3-7.2c-3.5,1.6-6.9,2.4-9.7,2.4
		c-12.1,0-20.5-8.3-20.5-20.5c0-12.2,8.4-20.5,20.5-20.5c5.8,0,11.7,2.8,16,7.5L99.7,140.3z"/>
</g>
</svg>
