<?xml version="1.0" encoding="utf-8"?>
<!-- Generator: Adobe Illustrator 24.1.0, SVG Export Plug-In . SVG Version: 6.00 Build 0)  -->
<svg version="1.1" id="Layer_1" xmlns="http://www.w3.org/2000/svg" xmlns:xlink="http://www.w3.org/1999/xlink" x="0px" y="0px"
	 viewBox="0 0 960 320" style="enable-background:new 0 0 960 320;" xml:space="preserve">
<g>
	<path d="M285.2,132.4v55.1h7.1v-24H319v-7.1h-26.8v-16.9H319v-7.1H285.2z M344.2,187.6h7.1v-55.2h-7.1V187.6z M419.2,132.4
		l-17.8,22l-17.8-22h-9.1l22.3,27.6l-22.3,27.5h9.1l17.7-21.8l17.7,21.8h9.1L406,160.1l22.3-27.6h-9.1V132.4z M451.5,132.4v55.1h7.1
		v-24h26.8v-7.1h-26.8v-16.9h26.8v-7.1H451.5z M531.3,141l13.8,29.8h-27.6L531.3,141z M527.6,132.4l-25.7,55.1h7.8l4.4-9.7h34.3
		l4.4,9.7h7.8L535,132.4H527.6z M583.5,132.4v55.1h7.1v-24h26.8v-7.1h-26.8v-16.9h26.8v-7.1H583.5z M642.6,132.4v55.1h7.1v-24h26.8
		v-7.1h-26.8v-16.9h26.8v-7.1H642.6z"/>
</g>
</svg>
