<?xml version="1.0" encoding="utf-8"?>
<!-- Generator: Adobe Illustrator 18.0.0, SVG Export Plug-In . SVG Version: 6.00 Build 0)  -->
<!DOCTYPE svg PUBLIC "-//W3C//DTD SVG 1.1//EN" "http://www.w3.org/Graphics/SVG/1.1/DTD/svg11.dtd">
<svg version="1.1" id="Layer_1" xmlns="http://www.w3.org/2000/svg" xmlns:xlink="http://www.w3.org/1999/xlink" x="0px" y="0px"
	 width="960px" height="320px" viewBox="0 0 960 320" enable-background="new 0 0 960 320" xml:space="preserve">
<g>
	<path fill="#FFFFFF" d="M684.4,207.2l-8.5-12.3h-4.3l11.1,16v11.6h3.5v-11.6l11.1-16H693L684.4,207.2z M663.3,194.9h-25.2v3.5h10.8
		v24h3.5v-24h10.9V194.9z M626.9,194.9h-3.5v27.6h3.5V194.9z M612.1,194.9h-25.2v3.5h10.8v24h3.5v-24h10.9V194.9z M575.6,222.5
		v-27.6h-3.5v21.7l-17.9-21.7h-3.3v27.6h3.5v-21.5l17.8,21.5H575.6z M520.8,222.5h16.9v-3.5h-13.4v-8.5h13.4v-3.5h-13.4v-8.5h13.4
		v-3.5h-16.9V222.5z M494.1,198.5c5.9,0,10.2,4.3,10.2,10.2s-4.3,10.2-10.2,10.2h-5.9v-20.5H494.1z M484.6,222.5h9.5
		c7.8,0,13.7-5.8,13.7-13.8c0-8-5.9-13.8-13.7-13.8h-9.5V222.5z M470.4,194.9h-3.5v27.6h3.5V194.9z M416.7,198.5
		c5.9,0,10.2,4.3,10.2,10.2s-4.3,10.2-10.2,10.2h-5.9v-20.5H416.7z M407.3,222.5h9.5c7.8,0,13.7-5.8,13.7-13.8
		c0-8-5.9-13.8-13.7-13.8h-9.5V222.5z M393.1,222.5v-27.6h-3.5v21.7l-17.9-21.7h-3.3v27.6h3.5v-21.5l17.8,21.5H393.1z M342.3,199.2
		l6.9,14.9h-13.8L342.3,199.2z M357,222.5l-12.8-27.6h-3.7l-12.8,27.6h3.9l2.2-4.8h17.2l2.2,4.8H357z M302.8,208l1.6,2h-4.9v-11.5h7
		c3.2,0,5.8,2.4,5.8,5.7c0,2.5-1.6,4.6-3.7,5.4l-3.1-3.9L302.8,208z M299.5,213.5h7.7l7.3,9h4.6l-8.2-10c3-1.5,4.9-4.5,4.9-8.3
		c0-5.4-3.9-9.3-9.3-9.3H296v27.6h3.5V213.5z M267.7,198.5h8c2.4,0,4.1,1.6,4.1,4.1c0,2.5-1.7,4.3-3.9,4.3h-8.2V198.5z M267.7,210.5
		h8.2c2.2,0,3.9,1.9,3.9,4.3c0,2.5-1.7,4.1-4.1,4.1h-8V210.5z M264.2,222.5h11.5c4.2,0,7.6-3.1,7.6-7.7c0-2.6-1.3-4.9-3.3-6.1
		c2-1.2,3.3-3.5,3.3-6.1c0-4.6-3.4-7.7-7.6-7.7h-11.5V222.5z"/>
	<path fill="#FFFFFF" d="M285.2,98.4v55.1h7.1v-24H319v-7.1h-26.8v-16.9H319v-7.1H285.2z M344.2,153.6h7.1V98.4h-7.1V153.6z
		 M419.2,98.4l-17.8,22l-17.8-22h-9.1l22.3,27.6l-22.3,27.5h9.1l17.7-21.8l17.7,21.8h9.1L406,126.1l22.3-27.6H419.2z M451.5,98.4
		v55.1h7.1v-24h26.8v-7.1h-26.8v-16.9h26.8v-7.1H451.5z M531.3,107l13.8,29.8h-27.6L531.3,107z M527.6,98.4l-25.7,55.1h7.8l4.4-9.7
		h34.3l4.4,9.7h7.8L535,98.4H527.6z M583.5,98.4v55.1h7.1v-24h26.8v-7.1h-26.8v-16.9h26.8v-7.1H583.5z M642.6,98.4v55.1h7.1v-24
		h26.8v-7.1h-26.8v-16.9h26.8v-7.1H642.6z"/>
</g>
</svg>
