<?xml version="1.0" encoding="utf-8"?>
<!-- Generator: Adobe Illustrator 24.1.0, SVG Export Plug-In . SVG Version: 6.00 Build 0)  -->
<svg version="1.1" id="Layer_1" xmlns="http://www.w3.org/2000/svg" xmlns:xlink="http://www.w3.org/1999/xlink" x="0px" y="0px"
	 viewBox="0 0 960 320" style="enable-background:new 0 0 960 320;" xml:space="preserve">
<style type="text/css">
	.st0{fill:#1D1D1B;}
</style>
<g>
	<path class="st0" d="M777.3,181.4c0,3.5,2.7,6.1,6.1,6.1c3.5,0,6.2-2.7,6.2-6.1s-2.8-6.2-6.2-6.2C780,175.2,777.3,178,777.3,181.4
		 M722.3,180.5c-11.7,0-20.4-8.7-20.4-20.5c0-11.7,8.7-20.5,20.4-20.5c11.8,0,20.4,8.7,20.4,20.5
		C742.7,171.7,734.1,180.5,722.3,180.5 M722.3,132.4c-15.7,0-27.5,11.8-27.5,27.6c0,15.8,11.8,27.6,27.5,27.6
		c15.8,0,27.5-11.8,27.5-27.6C749.7,144.2,738,132.4,722.3,132.4 M673.9,140.3c-5.4-5-12.2-7.9-19.2-7.9
		c-15.7,0-27.6,11.9-27.6,27.6c0,15.7,11.9,27.6,27.6,27.6c3.4,0,7.2-0.9,10.9-2.3l-1.3-7.2c-3.5,1.6-6.9,2.4-9.7,2.4
		c-12.1,0-20.5-8.3-20.5-20.5c0-12.2,8.4-20.5,20.5-20.5c5.8,0,11.7,2.8,16,7.5L673.9,140.3z M554.2,187.6v-55.1h-7.1v24h-31.4v-24
		h-7.1v55.1h7.1v-24h31.4v24H554.2z M481.5,145.7c-2.4-8.2-9.4-13.3-17-13.3c-8.9,0-16.9,5.9-16.9,15.2c0,10.1,9,13.9,16.4,15.8
		c5.6,1.4,9.8,4.1,9.8,9.1c0,4.9-4.3,8-9.9,8c-4.8,0-9-3.2-10.6-9.4l-6.2,3.3c2.8,9.7,10.2,13.2,16.9,13.2c8.6,0,17-5.2,17-15.1
		c0-9.1-7.1-13.8-15.4-15.9c-6-1.5-10.8-3.7-10.8-8.9c0-3.9,3.3-8.1,9.8-8.1c4.3,0,8.7,3,10.3,9L481.5,145.7z M395.8,141l13.8,29.8
		h-27.6L395.8,141z M425.2,187.6l-25.7-55.1h-7.4l-25.7,55.1h7.8l4.4-9.7H413l4.4,9.7H425.2z M313.1,187.6h34.4v-7.1h-27.3v-48h-7.1
		V187.6z M260.9,141l13.8,29.8h-27.6L260.9,141z M290.3,187.6l-25.7-55.1h-7.4l-25.7,55.1h7.8l4.4-9.7h34.3l4.4,9.7H290.3z
		 M205.6,187.6h9l-23.8-31.1l23.8-24h-10l-27.2,27.5v-27.5h-7.1v55.1h7.1V170l8.3-8.4L205.6,187.6z"/>
</g>
</svg>
