<?xml version="1.0" encoding="utf-8"?>
<!-- Generator: Adobe Illustrator 24.1.0, SVG Export Plug-In . SVG Version: 6.00 Build 0)  -->
<svg version="1.1" id="Layer_1" xmlns="http://www.w3.org/2000/svg" xmlns:xlink="http://www.w3.org/1999/xlink" x="0px" y="0px"
	 viewBox="0 0 960 320" style="enable-background:new 0 0 960 320;" xml:space="preserve">
<path d="M771.5,139.5c11.8,0,20.4,8.5,20.4,20.5c0,12-8.6,20.5-20.4,20.5h-11.8v-41L771.5,139.5L771.5,139.5z M752.6,187.6h18.9
	c15.6,0,27.5-11.7,27.5-27.6c0-15.9-11.9-27.6-27.5-27.6h-18.9V187.6z M717.2,147.9c0,5.2-3.8,8.2-8.2,8.4h-3.3v7.1h3.3
	c4.4,0.2,8.2,3.1,8.2,8.5c0,5.3-3.8,8.5-8.9,8.5c-5.2,0-9.3-4.4-10.4-10.4l-6.1,4.7c2,7.4,8.3,12.8,16.5,12.8c9.1,0,16-5.8,16-15.6
	c0-5.2-2.1-9.5-5.8-12.1c3.4-2.4,5.8-6.5,5.8-12c0-9.1-7.2-15.5-16-15.5c-8.2,0-14.3,5.6-16.5,12.3l6.1,4.9
	c1.4-6.1,5.8-10.1,10.4-10.1C713.1,139.5,717.2,142.8,717.2,147.9 M639,139.5c11.8,0,20.4,8.5,20.4,20.5c0,12-8.6,20.5-20.4,20.5
	h-11.8v-41L639,139.5L639,139.5z M620.1,187.6H639c15.6,0,27.5-11.7,27.5-27.6c0-15.9-11.9-27.6-27.5-27.6h-18.9V187.6z
	 M565.1,158.6l3.2,3.9h-9.8v-23h14.1c6.4,0,11.5,4.8,11.5,11.5c0,5-3.1,9.1-7.4,10.8l-6.1-7.8L565.1,158.6z M558.4,169.6h15.4
	l14.7,18h9.2l-16.3-20c5.9-3,9.8-9.1,9.8-16.5c0-10.7-7.9-18.6-18.6-18.6h-21.2v55.1h7.1V169.6z M499.1,141l13.8,29.8h-27.6
	L499.1,141z M528.5,187.6l-25.7-55.1h-7.4l-25.7,55.1h7.8l4.4-9.7h34.3l4.4,9.7H528.5z M407.3,132.4l-19.1,43l-17.1-43h-7.6
	l21.9,55.1h5.2l20.2-45.2l20.2,45.2h5.2l21.9-55.1h-7.6l-17.1,43l-19.1-43H407.3z M316.2,158.6l3.2,3.9h-9.8v-23h14.1
	c6.4,0,11.5,4.8,11.5,11.5c0,5-3.2,9.1-7.4,10.8l-6.1-7.8L316.2,158.6z M309.6,169.6H325l14.7,18h9.2l-16.3-20
	c5.9-3,9.8-9.1,9.8-16.5c0-10.7-7.9-18.6-18.6-18.6h-21.2v55.1h7.1V169.6z M249,180.5c-11.7,0-20.4-8.7-20.4-20.5
	c0-11.7,8.7-20.5,20.4-20.5c11.8,0,20.4,8.7,20.4,20.5C269.4,171.7,260.8,180.5,249,180.5 M249,132.4c-15.7,0-27.5,11.8-27.5,27.6
	c0,15.8,11.8,27.6,27.5,27.6c15.8,0,27.5-11.8,27.5-27.6C276.5,144.2,264.8,132.4,249,132.4 M198.7,139.5v-7.1h-33.9v55.1h7.1v-24
	h26.8v-7.1h-26.8v-16.9C171.9,139.5,198.7,139.5,198.7,139.5z"/>
</svg>
