<?xml version="1.0" encoding="utf-8"?>
<!-- Generator: Adobe Illustrator 24.1.0, SVG Export Plug-In . SVG Version: 6.00 Build 0)  -->
<svg version="1.1" id="Layer_1" xmlns="http://www.w3.org/2000/svg" xmlns:xlink="http://www.w3.org/1999/xlink" x="0px" y="0px"
	 viewBox="0 0 960 320" style="enable-background:new 0 0 960 320;" xml:space="preserve">
<path d="M725.8,187.6h34.4v-7.1h-27.3v-48h-7.1V187.6z M668.1,187.6h34.4v-7.1h-27.3v-48h-7.1V187.6z M615.9,141l13.8,29.8h-27.6
	L615.9,141z M645.3,187.6l-25.7-55.1h-7.4l-25.7,55.1h7.8l4.4-9.7h34.3l4.4,9.7H645.3z M524.1,132.4l-19.1,43l-17.1-43h-7.6
	l21.9,55.1h5.2l20.2-45.2l20.2,45.2h5.2l21.9-55.1h-7.6l-17.1,43l-19.1-43H524.1z M433.8,139.5c11.8,0,20.4,8.5,20.4,20.5
	c0,12-8.6,20.5-20.4,20.5H422v-41L433.8,139.5L433.8,139.5z M414.9,187.6h18.9c15.6,0,27.5-11.7,27.5-27.6
	c0-15.9-11.9-27.6-27.5-27.6h-18.9V187.6z M359.8,158.6l3.2,3.9h-9.8v-23h14.1c6.4,0,11.5,4.8,11.5,11.5c0,5-3.1,9.1-7.4,10.8
	l-6.1-7.8L359.8,158.6z M353.2,169.6h15.4l14.7,18h9.2l-16.3-20c5.9-3,9.8-9.1,9.8-16.5c0-10.7-7.9-18.6-18.6-18.6h-21.2v55.1h7.1
	V169.6z M293.9,141l13.8,29.8h-27.6L293.9,141z M323.3,187.6l-25.7-55.1h-7.4l-25.7,55.1h7.8l4.4-9.7h34.3l4.4,9.7H323.3z
	 M246.8,140.3c-5.4-5-12.2-7.9-19.2-7.9c-15.7,0-27.6,11.9-27.6,27.6c0,15.7,11.9,27.6,27.6,27.6c3.4,0,7.2-0.9,10.9-2.3l-1.3-7.2
	c-3.5,1.6-6.9,2.4-9.7,2.4c-12.1,0-20.5-8.3-20.5-20.5c0-12.2,8.4-20.5,20.5-20.5c5.8,0,11.7,2.8,16,7.5L246.8,140.3z"/>
</svg>
