<?xml version="1.0" encoding="utf-8"?>
<!-- Generator: Adobe Illustrator 24.1.0, SVG Export Plug-In . SVG Version: 6.00 Build 0)  -->
<svg version="1.1" id="Layer_1" xmlns="http://www.w3.org/2000/svg" xmlns:xlink="http://www.w3.org/1999/xlink" x="0px" y="0px"
	 viewBox="0 0 960 320" style="enable-background:new 0 0 960 320;" xml:space="preserve">
<path d="M922.2,234.8v-55.1h-7.1v43.4l-35.8-43.4h-6.5v55.1h7.1v-43.1l35.5,43.1L922.2,234.8L922.2,234.8z M819.3,227.7
	c-11.7,0-20.4-8.7-20.4-20.5c0-11.7,8.7-20.5,20.4-20.5c11.8,0,20.4,8.7,20.4,20.5S831.1,227.7,819.3,227.7 M819.3,179.7
	c-15.7,0-27.5,11.8-27.5,27.6s11.8,27.6,27.5,27.6c15.8,0,27.5-11.8,27.5-27.6S835.1,179.7,819.3,179.7 M765.8,179.7h-7.1v55.1h7.1
	V179.7z M736.3,179.7h-50.5v7.1h21.7v48h7.1v-48h21.7V179.7z M663.4,179.7h-7.1v55.1h7.1V179.7z M599.8,186.8h16
	c4.7,0,8.2,3.2,8.2,8.3c0,5-3.3,8.7-7.8,8.7h-16.4V186.8L599.8,186.8z M599.8,210.8h16.4c4.5,0,7.8,3.7,7.8,8.7s-3.5,8.3-8.2,8.3
	h-16V210.8L599.8,210.8z M592.7,234.8h23.1c8.4,0,15.3-6.1,15.3-15.4c0-5.3-2.6-9.8-6.7-12.2c4.1-2.4,6.7-7,6.7-12.2
	c0-9.2-6.9-15.4-15.3-15.4h-23.1V234.8z M564.3,179.7h-7.1v55.1h7.1V179.7z M528.9,234.8v-55.1h-7.1v24h-31.4v-24h-7.1v55.1h7.1v-24
	h31.4v24L528.9,234.8L528.9,234.8z M460.1,179.7H451l-17.8,22l-17.8-22h-9.1l22.3,27.6l-22.3,27.5h9.1l17.7-21.8l17.7,21.8h9.1
	l-22.3-27.5L460.1,179.7z M351.2,234.8h33.9v-7.1h-26.8v-16.9h26.8v-7.1h-26.8v-16.9h26.8v-7.1h-33.9V234.8z M277.2,193
	c-2.4-8.2-9.4-13.3-17-13.3c-8.9,0-16.9,5.9-16.9,15.2c0,10.1,9,13.9,16.4,15.8c5.6,1.4,9.8,4.1,9.8,9.1c0,4.9-4.3,8-9.9,8
	c-4.8,0-9-3.2-10.6-9.4l-6.2,3.3c2.8,9.7,10.2,13.2,16.9,13.2c8.6,0,17-5.2,17-15.1c0-9.1-7.1-13.8-15.4-15.9
	c-6-1.5-10.8-3.7-10.8-8.9c0-3.9,3.3-8.1,9.8-8.1c4.3,0,8.7,3,10.3,9L277.2,193z M221.3,179.7h-50.5v7.1h21.7v48h7.1v-48h21.7V179.7
	L221.3,179.7z M124.8,205.8l3.2,3.9h-9.8v-23h14.1c6.4,0,11.5,4.8,11.5,11.5c0,5-3.2,9.1-7.4,10.8l-6.1-7.8L124.8,205.8z
	 M118.2,216.9h15.4l14.7,18h9.2l-16.3-20c5.9-3,9.8-9.1,9.8-16.5c0-10.7-7.9-18.6-18.6-18.6h-21.2v55.1h7.1
	C118.2,234.8,118.2,216.9,118.2,216.9z M58.9,188.3l13.8,29.8H45.1L58.9,188.3z M88.3,234.8l-25.7-55.1h-7.4l-25.7,55.1h7.8l4.4-9.7
	H76l4.4,9.7L88.3,234.8L88.3,234.8z"/>
<path d="M949,93c-5.4-5-12.2-7.9-19.2-7.9c-15.7,0-27.6,11.9-27.6,27.6s11.9,27.6,27.6,27.6c3.4,0,7.2-0.9,10.9-2.3l-1.3-7.2
	c-3.5,1.6-6.9,2.4-9.7,2.4c-12.1,0-20.5-8.3-20.5-20.5s8.4-20.5,20.5-20.5c5.8,0,11.7,2.8,16,7.5L949,93z M876.2,85.2h-7.1v55.1h7.1
	V85.2z M840.7,140.3V85.2h-7.1v24h-31.4v-24h-7.1v55.1h7.1v-24h31.4v24L840.7,140.3L840.7,140.3z M739.6,115.3v-23h12.5
	c6.4,0,11.5,4.8,11.5,11.5s-5.1,11.5-11.5,11.5H739.6z M752.1,122.3c10.7,0,18.6-7.9,18.6-18.6s-7.9-18.6-18.6-18.6h-19.6v55.1h7.1
	v-18L752.1,122.3L752.1,122.3z M680.3,93.8l13.8,29.8h-27.6L680.3,93.8z M709.7,140.3L684,85.2h-7.4l-25.7,55.1h7.8l4.4-9.7h34.3
	l4.4,9.7C701.9,140.3,709.7,140.3,709.7,140.3z M601.4,111.3l3.2,3.9h-9.8v-23h14.1c6.4,0,11.5,4.8,11.5,11.5c0,5-3.2,9.1-7.4,10.8
	l-6.1-7.8L601.4,111.3z M594.8,122.3h15.4l14.7,18h9.2l-16.3-20c5.9-3,9.8-9.1,9.8-16.5c0-10.7-7.9-18.6-18.6-18.6h-21.2v55.1h7.1
	L594.8,122.3L594.8,122.3z M564.4,93c-5.4-5-12.2-7.9-19.2-7.9c-15.7,0-27.6,11.9-27.6,27.6s11.9,27.6,27.6,27.6c3.4,0,8-1,11.7-2.5
	v-26.5h-19.8v7.1h12.7v14.3c-1.7,0.4-3.2,0.6-4.6,0.6c-12.1,0-20.5-8.3-20.5-20.5s8.4-20.5,20.5-20.5c5.8,0,11.7,2.8,16,7.5
	L564.4,93z M449.9,93c-5.4-5-12.2-7.9-19.2-7.9c-15.7,0-27.6,11.9-27.6,27.6s11.9,27.6,27.6,27.6c3.4,0,7.2-0.9,10.9-2.3l-1.3-7.2
	c-3.5,1.6-6.9,2.4-9.7,2.4c-12.1,0-20.5-8.3-20.5-20.5s8.4-20.5,20.5-20.5c5.8,0,11.7,2.8,16,7.5L449.9,93z M377.1,85.2H370v55.1
	h7.1V85.2z M314.5,115.3v-23H327c6.4,0,11.5,4.8,11.5,11.5s-5.1,11.5-11.5,11.5H314.5z M327,122.3c10.7,0,18.6-7.9,18.6-18.6
	s-7.9-18.6-18.6-18.6h-19.6v55.1h7.1v-18L327,122.3L327,122.3z M248.6,140.3l23.3-41v41h7.1V85.2h-7.3l-26.2,46l-26.2-46H212v55.1
	h7.1v-41l23.3,41L248.6,140.3L248.6,140.3z M165.5,109.7l-17-24.6h-8.7l22.1,31.9v23.2h7.1V117l22.1-31.9h-8.7L165.5,109.7z
	 M92,140.3h34.4v-7.1H99.1v-48H92V140.3L92,140.3z M38.5,133.2c-11.7,0-20.4-8.7-20.4-20.5c0-11.7,8.7-20.5,20.4-20.5
	c11.8,0,20.4,8.7,20.4,20.5S50.3,133.2,38.5,133.2 M38.5,85.2C22.8,85.2,11,97,11,112.7s11.8,27.6,27.5,27.6
	c15.8,0,27.5-11.8,27.5-27.6S54.2,85.2,38.5,85.2"/>
</svg>
